<svg width="128" height="128" viewBox="0 0 128 128" fill="none" xmlns="http://www.w3.org/2000/svg">
  <defs>
    <linearGradient id="grad2" x1="0%" y1="0%" x2="100%" y2="100%">
      <stop offset="0%" style="stop-color:#667eea;stop-opacity:1" />
      <stop offset="100%" style="stop-color:#764ba2;stop-opacity:1" />
    </linearGradient>
    <filter id="shadow">
      <feDropShadow dx="0" dy="4" stdDeviation="4" flood-opacity="0.2"/>
    </filter>
  </defs>
  
  <!-- Background -->
  <rect width="128" height="128" rx="24" fill="url(#grad2)" filter="url(#shadow)"/>
  
  <!-- Chat bubble -->
  <g filter="url(#shadow)">
    <path d="M25 35c-3 0-5 2-5 5v45c0 3 2 5 5 5h48l12 12v-12h12c3 0 5-2 5-5v-45c0-3-2-5-5-5H25z" fill="white" opacity="0.95"/>
    
    <!-- Chat dots (typing indicator) -->
    <circle cx="40" cy="65" r="4" fill="#667eea" opacity="0.7"/>
    <circle cx="55" cy="65" r="4" fill="#667eea" opacity="0.7"/>
    <circle cx="70" cy="65" r="4" fill="#667eea" opacity="0.7"/>
    
    <!-- AI icon -->
    <circle cx="85" cy="50" r="8" fill="#667eea" opacity="0.8"/>
    <path d="M85 45v10M80 50h10" stroke="white" stroke-width="1.5" stroke-linecap="round"/>
  </g>
  
  <!-- Accent circle -->
  <circle cx="110" cy="30" r="12" fill="white" opacity="0.3"/>
</svg>
